HIERARCHY
ROOT Hips
{
	OFFSET 0.000000 0.000000 0.000000
	CHANNELS 6 Xposition Yposition Zposition Xrotation Yrotation Zrotation
	JOINT LeftUpLeg_virtual
	{
		OFFSET 0.000000 0.000000 0.000000
		CHANNELS 3 Xrotation Yrotation Zrotation
		JOINT LeftUpLeg
		{
			OFFSET 15.427100 -6.655098 0.678600
			CHANNELS 3 Xrotation Yrotation Zrotation
			JOINT LeftLeg
			{
				OFFSET 4.081073 -39.591068 13.024000
				CHANNELS 3 Xrotation Yrotation Zrotation
				JOINT LeftFoot
				{
					OFFSET -4.081074 -37.707932 -15.979700
					CHANNELS 3 Xrotation Yrotation Zrotation
					JOINT LeftToeBase
					{
						OFFSET 5.346399 -15.068900 20.645000
						CHANNELS 3 Xrotation Yrotation Zrotation
						JOINT LeftToe_End
						{
							OFFSET 2.754700 0.931300 11.300900
							CHANNELS 3 Xrotation Yrotation Zrotation
							End Site
							{
								OFFSET 0 0 0
							}
						}
					}
				}
			}
		}
	}
	JOINT RightUpLeg_virtual
	{
		OFFSET 0.000000 0.000000 0.000000
		CHANNELS 3 Xrotation Yrotation Zrotation
		JOINT RightUpLeg
		{
			OFFSET -15.569500 -6.655098 0.678600
			CHANNELS 3 Xrotation Yrotation Zrotation
			JOINT RightLeg
			{
				OFFSET -4.081825 -39.591045 13.023800
				CHANNELS 3 Xrotation Yrotation Zrotation
				JOINT RightFoot
				{
					OFFSET 4.081824 -37.707954 -15.979600
					CHANNELS 3 Xrotation Yrotation Zrotation
					JOINT RightToeBase
					{
						OFFSET -5.346400 -15.068900 20.645000
						CHANNELS 3 Xrotation Yrotation Zrotation
						JOINT RightToe_End
						{
							OFFSET -2.754700 0.931300 11.300900
							CHANNELS 3 Xrotation Yrotation Zrotation
							End Site
							{
								OFFSET 0 0 0
							}
						}
					}
				}
			}
		}
	}
	JOINT Spine_virtual
	{
		OFFSET 0.000000 0.000000 0.000000
		CHANNELS 3 Xrotation Yrotation Zrotation
		JOINT Spine
		{
			OFFSET -0.279200 12.230698 -2.892100
			CHANNELS 3 Xrotation Yrotation Zrotation
			JOINT Spine1
			{
				OFFSET -0.232667 10.192268 -1.242267
				CHANNELS 3 Xrotation Yrotation Zrotation
				JOINT Spine1_split
				{
					OFFSET -0.232667 10.192268 -1.242267
					CHANNELS 3 Xrotation Yrotation Zrotation
					JOINT Spine2
					{
						OFFSET -0.232667 10.192268 -1.242267
						CHANNELS 3 Xrotation Yrotation Zrotation
						JOINT Neck_virtual
						{
							OFFSET 0.000000 0.000000 0.000000
							CHANNELS 3 Xrotation Yrotation Zrotation
							JOINT Neck
							{
								OFFSET -0.418800 17.814194 8.416900
								CHANNELS 3 Xrotation Yrotation Zrotation
								JOINT Head
								{
									OFFSET 0.000000 7.031097 3.806800
									CHANNELS 3 Xrotation Yrotation Zrotation
									JOINT HeadTop_End
									{
										OFFSET 0.000000 24.646606 12.978600
										CHANNELS 3 Xrotation Yrotation Zrotation
										End Site
										{
											OFFSET 0 0 0
										}
									}
								}
							}
						}
						JOINT LeftShoulder_virtual
						{
							OFFSET 0.000000 0.000000 0.000000
							CHANNELS 3 Xrotation Yrotation Zrotation
							JOINT LeftShoulder
							{
								OFFSET 8.476499 7.247704 -3.868750
								CHANNELS 3 Xrotation Yrotation Zrotation
								JOINT LeftShoulder_split
								{
									OFFSET 8.476499 7.247704 -3.868750
									CHANNELS 3 Xrotation Yrotation Zrotation
									JOINT LeftArm
									{
										OFFSET 9.308998 -2.777710 0.208600
										CHANNELS 3 Xrotation Yrotation Zrotation
										JOINT LeftForeArm
										{
											OFFSET 29.972298 0.000000 0.000000
											CHANNELS 3 Xrotation Yrotation Zrotation
											JOINT LeftHand
											{
												OFFSET 26.026505 0.000000 0.000000
												CHANNELS 3 Xrotation Yrotation Zrotation
												End Site
												{
													OFFSET 0 0 0
												}
											}
										}
									}
								}
							}
						}
						JOINT RightShoulder_virtual
						{
							OFFSET 0.000000 0.000000 0.000000
							CHANNELS 3 Xrotation Yrotation Zrotation
							JOINT RightShoulder
							{
								OFFSET -7.570500 7.247704 -3.868750
								CHANNELS 3 Xrotation Yrotation Zrotation
								JOINT RightShoulder_split
								{
									OFFSET -7.570500 7.247704 -3.868750
									CHANNELS 3 Xrotation Yrotation Zrotation
									JOINT RightArm
									{
										OFFSET -9.308998 -2.777710 0.208500
										CHANNELS 3 Xrotation Yrotation Zrotation
										JOINT RightForeArm
										{
											OFFSET -29.972300 0.000000 0.000000
											CHANNELS 3 Xrotation Yrotation Zrotation
											JOINT RightHand
											{
												OFFSET -26.026505 0.000000 0.000000
												CHANNELS 3 Xrotation Yrotation Zrotation
												End Site
												{
													OFFSET 0 0 0
												}
											}
										}
									}
								}
							}
						}
					}
				}
			}
		}
	}
}
MOTION
Frames: 7
Frame Time: 0.03333333
0.325153 96.206253 -1.131065 0.000000 0.000000 0.000000 2.828257 -5.505352 -1.169472 -15.280149 16.861809 13.208420 17.992320 8.410818 4.045431 -4.196392 4.481959 -12.889123 0.000002 -0.000009 0.000002 0.000000 0.000000 0.000000 2.828257 -5.505352 -1.169472 -14.745362 -21.314951 -4.563342 17.243262 9.315301 -3.241397 -5.893556 1.584794 3.805998 -0.000003 -0.000002 -0.000001 0.000000 0.000000 0.000000 2.828257 -5.505352 -1.169472 -0.414109 -1.031349 1.023039 -1.124193 -0.763623 0.960462 0.000000 0.000000 0.000000 0.000000 0.000000 0.000000 -1.125714 -0.723787 0.985440 -4.895965 1.540610 -0.449521 -0.934612 6.880854 -0.774390 0.000000 0.000000 0.000000 -1.125714 -0.723787 0.985440 -1.469254 10.517226 -4.984828 0.000000 0.000000 0.000000 43.879656 -68.213687 -24.791754 0.000003 -21.268111 -0.000011 0.000000 0.000000 0.000000 -1.125714 -0.723787 0.985440 3.669362 5.665987 1.464133 0.000000 0.000000 0.000000 -1.701536 36.578661 65.584986 -0.000003 22.959753 -0.000002 0.000000 0.000000 0.000000 
0.365794 96.192795 -1.148209 0.000000 0.000000 0.000000 2.785939 -5.427018 -1.115479 -15.241808 16.857180 13.144578 18.002080 8.403141 3.963846 -4.202675 4.424539 -12.800753 0.000002 -0.000009 0.000002 0.000000 0.000000 0.000000 2.785939 -5.427018 -1.115479 -14.781772 -21.368472 -4.709602 17.311717 9.316446 -3.220611 -5.922116 1.597372 3.822684 -0.000002 0.000007 0.000001 0.000000 0.000000 0.000000 2.785939 -5.427018 -1.115479 -0.428943 -1.108906 1.012242 -1.138106 -0.823449 0.951492 0.000000 0.000000 0.000000 0.000000 0.000000 0.000000 -1.139511 -0.784102 0.978433 -4.937642 1.583682 -0.410673 -0.868418 7.152526 -0.837619 0.000000 0.000000 0.000000 -1.139511 -0.784102 0.978433 -1.471644 10.508769 -4.946811 0.000000 0.000000 0.000000 43.432063 -68.283109 -25.363730 0.000000 -21.330133 0.000006 0.000000 0.000000 0.000000 -1.139511 -0.784102 0.978433 3.663049 5.650921 1.476512 0.000000 0.000000 0.000000 -1.717216 36.859573 65.610340 -0.000006 22.842787 -0.000008 0.000000 0.000000 0.000000 
0.420213 96.164604 -1.164722 0.000000 0.000000 0.000000 2.776812 -5.389194 -1.000737 -15.224336 16.921787 13.000796 18.020310 8.394786 3.925557 -4.226603 4.361358 -12.721734 0.000002 -0.000008 0.000002 0.000000 0.000000 0.000000 2.776812 -5.389194 -1.000737 -14.934803 -21.380859 -4.944108 17.460322 9.315840 -3.196234 -5.973357 1.627574 3.843950 -0.000006 0.000011 0.000000 0.000000 0.000000 0.000000 2.776812 -5.389194 -1.000737 -0.417898 -1.168914 0.978470 -1.131372 -0.870494 0.928004 0.000000 0.000000 0.000000 0.000000 0.000000 0.000000 -1.132506 -0.832500 0.956358 -5.037497 1.635505 -0.388879 -0.900392 7.441775 -0.927431 0.000000 0.000000 0.000000 -1.132506 -0.832500 0.956358 -1.473701 10.490591 -4.887723 0.000000 0.000000 0.000000 43.137692 -68.429138 -25.722619 0.000007 -21.393966 0.000025 0.000000 0.000000 0.000000 -1.132506 -0.832500 0.956358 3.664919 5.654362 1.451227 0.000000 0.000000 0.000000 -1.796765 37.337113 65.625093 -0.000011 22.587652 0.000027 0.000000 0.000000 0.000000 
0.507735 96.106888 -1.180374 0.000000 0.000000 0.000000 2.828651 -5.449816 -0.784297 -15.259046 17.156790 12.727030 18.073423 8.385649 3.971118 -4.296875 4.278567 -12.658094 0.000002 -0.000010 0.000002 0.000000 0.000000 0.000000 2.828651 -5.449816 -0.784297 -15.290821 -21.231995 -5.318399 17.748854 9.310873 -3.153606 -6.057875 1.635736 3.872414 -0.000002 0.000000 0.000000 0.000000 0.000000 0.000000 2.828651 -5.449816 -0.784297 -0.366461 -1.189331 0.908820 -1.092777 -0.887816 0.881203 0.000000 0.000000 0.000000 0.000000 0.000000 0.000000 -1.093512 -0.852415 0.909865 -5.248458 1.685504 -0.397724 -1.103955 7.675335 -1.046822 0.000000 0.000000 0.000000 -1.093512 -0.852415 0.909865 -1.474090 10.444456 -4.781208 0.000000 0.000000 0.000000 43.025189 -68.723458 -25.781362 0.000005 -21.419734 0.000011 0.000000 0.000000 0.000000 -1.093512 -0.852415 0.909865 3.678722 5.687033 1.404695 0.000000 0.000000 0.000000 -2.010117 38.066635 65.582554 0.000002 22.077851 0.000014 0.000000 0.000000 0.000000 
0.638417 96.020264 -1.200916 0.000000 0.000000 0.000000 2.892513 -5.611597 -0.458333 -15.271799 17.538100 12.306356 18.152971 8.373923 4.063810 -4.409862 4.228850 -12.580777 0.000002 -0.000008 0.000002 0.000000 0.000000 0.000000 2.892513 -5.611597 -0.458333 -15.806255 -20.902691 -5.849873 18.177498 9.301684 -3.091092 -6.172938 1.619878 3.918113 -0.000001 0.000005 0.000001 0.000000 0.000000 0.000000 2.892513 -5.611597 -0.458333 -0.264910 -1.139176 0.794943 -1.014297 -0.851582 0.802676 0.000000 0.000000 0.000000 0.000000 0.000000 0.000000 -1.014596 -0.820323 0.829836 -5.619359 1.714454 -0.443447 -1.539817 7.748886 -1.188271 0.000000 0.000000 0.000000 -1.014596 -0.820323 0.829836 -1.471302 10.345028 -4.589334 0.000000 0.000000 0.000000 43.065374 -69.235729 -25.520080 -0.000031 -21.356432 -0.000011 0.000000 0.000000 0.000000 -1.014596 -0.820323 0.829836 3.705969 5.755086 1.375351 0.000000 0.000000 0.000000 -2.516288 39.134809 65.431389 0.000012 21.139792 -0.000021 0.000000 0.000000 0.000000 
0.811695 95.927849 -1.233139 0.000000 0.000000 0.000000 2.883111 -5.802861 -0.044536 -15.123876 17.906523 11.747806 18.196497 8.357051 4.098260 -4.514233 4.295526 -12.429625 0.000002 -0.000009 0.000002 0.000000 0.000000 0.000000 2.883111 -5.802861 -0.044536 -16.359884 -20.599530 -6.532681 18.680190 9.292618 -3.062620 -6.300899 1.703845 4.017326 0.000001 -0.000007 0.000000 0.000000 0.000000 0.000000 2.883111 -5.802861 -0.044536 -0.113164 -0.983720 0.635870 -0.894590 -0.735101 0.687202 0.000000 0.000000 0.000000 0.000000 0.000000 0.000000 -0.894563 -0.709606 0.710332 -6.174736 1.697865 -0.515925 -2.226853 7.558351 -1.333290 0.000000 0.000000 0.000000 -0.894563 -0.709606 0.710332 -1.463625 10.163497 -4.266365 0.000000 0.000000 0.000000 43.162493 -70.010197 -25.022530 0.000007 -21.159767 -0.000016 0.000000 0.000000 0.000000 -0.894563 -0.709606 0.710332 3.744583 5.856910 1.418331 0.000000 0.000000 0.000000 -3.593252 40.698714 65.141495 0.000001 19.540726 0.000013 0.000000 0.000000 0.000000 
0.955884 95.878922 -1.253284 0.000000 0.000000 0.000000 2.854313 -5.980071 0.308250 -14.875763 18.088144 11.257339 18.141922 8.340359 4.040229 -4.553993 4.504651 -12.259786 0.000002 -0.000008 0.000002 0.000000 0.000000 0.000000 2.854313 -5.980071 0.308250 -16.805704 -20.559723 -7.101892 19.046514 9.288848 -3.144945 -6.382384 1.995016 4.164259 -0.000002 0.000009 0.000001 0.000000 0.000000 0.000000 2.854313 -5.980071 0.308250 0.060339 -0.667712 0.468992 -0.750027 -0.495112 0.562583 0.000000 0.000000 0.000000 0.000000 0.000000 0.000000 -0.750001 -0.475497 0.577901 -6.732251 1.598056 -0.599043 -3.007970 6.946132 -1.394037 0.000000 0.000000 0.000000 -0.750001 -0.475497 0.577901 -1.451811 9.933218 -3.879345 0.000000 0.000000 0.000000 43.670648 -70.807041 -23.973107 -0.000002 -20.852306 -0.000001 0.000000 0.000000 0.000000 -0.750001 -0.475497 0.577901 3.787129 5.971283 1.515912 0.000000 0.000000 0.000000 -5.464882 42.603841 64.826760 0.000003 17.395375 -0.000033 0.000000 0.000000 0.000000 
